<?xml version="1.0" encoding="utf-8"?>
<!-- Generator: Adobe Illustrator 19.0.0, SVG Export Plug-In . SVG Version: 6.00 Build 0)  -->
<svg version="1.1" id="Camada_1" xmlns="http://www.w3.org/2000/svg" xmlns:xlink="http://www.w3.org/1999/xlink" x="0px" y="0px"
	 viewBox="0 0 841.9 224.2" style="enable-background:new 0 0 841.9 224.2;" xml:space="preserve">
<style type="text/css">
	.st0{enable-background:new    ;}
	.st1{fill:#073E8E;}
	.st2{fill:#0A5FF0;}
	.st3{fill:none;stroke:#0A5FF0;stroke-miterlimit:10;}
</style>
<g id="XMLID_85_">
	<g id="XMLID_104_" class="st0">
		<path id="XMLID_4_" class="st1" d="M146.5,110.9H75.3c1.3,5.8,4.3,10.4,9.1,13.8c4.8,3.4,10.7,5.1,17.9,5.1c4.9,0,9.2-0.7,13-2.2
			c3.8-1.5,7.3-3.8,10.6-6.9l14.5,15.8c-8.9,10.2-21.8,15.2-38.9,15.2c-10.6,0-20-2.1-28.2-6.2c-8.2-4.1-14.5-9.9-18.9-17.2
			s-6.7-15.7-6.7-25c0-9.2,2.2-17.5,6.6-24.9c4.4-7.4,10.4-13.2,18-17.3c7.6-4.1,16.2-6.2,25.6-6.2c9.2,0,17.6,2,25,6
			c7.5,4,13.3,9.7,17.6,17.1c4.3,7.4,6.4,16,6.4,25.8C147.1,103.9,146.9,106.4,146.5,110.9z M82.7,80.6c-4.2,3.5-6.8,8.3-7.7,14.4
			h46.4c-0.9-6-3.5-10.7-7.7-14.3c-4.2-3.6-9.3-5.3-15.4-5.3C92,75.4,86.9,77.1,82.7,80.6z"/>
	</g>
	<g id="XMLID_107_" class="st0">
		<path id="XMLID_3_" class="st1" d="M234.2,65.1C242,72.1,246,82.5,246,96.5v53.7h-25.6v-11.7c-5.1,8.8-14.7,13.1-28.7,13.1
			c-7.2,0-13.5-1.2-18.8-3.7c-5.3-2.4-9.4-5.8-12.2-10.2c-2.8-4.3-4.2-9.2-4.2-14.7c0-8.8,3.3-15.6,9.9-20.7
			c6.6-5,16.8-7.5,30.5-7.5h21.7c0-6-1.8-10.5-5.4-13.7c-3.6-3.2-9-4.8-16.3-4.8c-5,0-9.9,0.8-14.8,2.4c-4.8,1.6-9,3.7-12.3,6.4
			L160,66.1c5.1-3.6,11.3-6.4,18.5-8.4c7.2-2,14.6-3,22.1-3C215.2,54.7,226.4,58.2,234.2,65.1z M211,130.1c3.6-2.2,6.2-5.3,7.7-9.5
			v-9.6h-18.7c-11.2,0-16.8,3.7-16.8,11c0,3.5,1.4,6.3,4.1,8.3c2.7,2,6.5,3.1,11.3,3.1C203.2,133.3,207.3,132.2,211,130.1z"/>
	</g>
	<g id="XMLID_110_" class="st0">
		<path id="XMLID_5_" class="st1" d="M277.4,148.8c-7.5-1.9-13.4-4.3-17.9-7.3l9.1-19.6c4.2,2.7,9.3,4.9,15.2,6.6
			c6,1.7,11.8,2.5,17.5,2.5c11.6,0,17.3-2.9,17.3-8.6c0-2.7-1.6-4.6-4.7-5.8c-3.2-1.2-8-2.2-14.5-3c-7.7-1.2-14.1-2.5-19.1-4
			c-5-1.5-9.4-4.2-13-8.1c-3.7-3.9-5.5-9.3-5.5-16.5c0-6,1.7-11.2,5.2-15.8c3.4-4.6,8.5-8.2,15.1-10.8c6.6-2.6,14.4-3.8,23.4-3.8
			c6.7,0,13.3,0.7,19.9,2.2c6.6,1.5,12,3.5,16.4,6l-9.1,19.4c-8.3-4.7-17.3-7-27.1-7c-5.8,0-10.2,0.8-13.1,2.4
			c-2.9,1.6-4.4,3.7-4.4,6.3c0,2.9,1.6,5,4.7,6.1c3.2,1.2,8.2,2.3,15.1,3.3c7.7,1.3,14,2.7,18.9,4.1c4.9,1.5,9.2,4.1,12.8,8
			c3.6,3.9,5.4,9.2,5.4,16.1c0,5.8-1.7,11-5.2,15.6c-3.5,4.6-8.6,8.1-15.3,10.6c-6.7,2.5-14.7,3.8-23.9,3.8
			C292.6,151.7,284.9,150.7,277.4,148.8z"/>
	</g>
	<g id="XMLID_112_" class="st0">
		<path id="XMLID_6_" class="st1" d="M455.3,56.1l-42.5,99.9c-4.3,10.9-9.7,18.5-16,22.9c-6.4,4.4-14,6.7-23,6.7
			c-4.9,0-9.7-0.8-14.5-2.3c-4.8-1.5-8.7-3.6-11.7-6.3l10-19.4c2.1,1.9,4.5,3.3,7.3,4.4c2.7,1.1,5.5,1.6,8.1,1.6
			c3.7,0,6.8-0.9,9.1-2.7c2.3-1.8,4.4-4.8,6.3-9l0.3-0.9l-40.8-94.9H376l26.4,63.9L429,56.1H455.3z"/>
	</g>
	<g id="XMLID_114_">
		<path id="XMLID_7_" class="st2" d="M519.2,123.4c-1.8,1.6-4.1,2.8-6.8,3.6c-2.7,0.8-5.5,1.2-8.4,1.2c-7,0-12.4-1.9-16.3-5.6
			c-3.8-3.8-5.8-9.1-5.8-16.1V68.3h-11.8V57.9h11.8V42.7h12.6v15.2h19.9v10.4h-19.9v37.6c0,3.8,0.9,6.6,2.8,8.7c1.9,2,4.6,3,8.1,3
			c3.8,0,7.1-1.1,9.8-3.3L519.2,123.4z"/>
	</g>
	<g id="XMLID_116_">
		<path id="XMLID_8_" class="st2" d="M553.2,60.4c4.3-2.1,9.5-3.1,15.6-3.1v12.2c-0.7-0.1-1.7-0.1-2.9-0.1c-6.8,0-12.2,2-16.1,6.1
			c-3.9,4.1-5.8,9.9-5.8,17.4v34.6h-12.6V57.9h12.1v11.7C545.7,65.6,548.9,62.5,553.2,60.4z"/>
	</g>
	<g id="XMLID_118_">
		<path id="XMLID_9_" class="st2" d="M630.1,64.4c5.1,4.7,7.7,11.8,7.7,21.1v42h-11.9v-9.2c-2.1,3.2-5.1,5.7-9,7.4
			c-3.9,1.7-8.5,2.6-13.8,2.6c-7.8,0-14-1.9-18.7-5.6c-4.7-3.8-7-8.7-7-14.8c0-6.1,2.2-11,6.7-14.7c4.5-3.7,11.5-5.6,21.2-5.6h19.9
			v-2.5c0-5.4-1.6-9.6-4.7-12.5c-3.1-2.9-7.8-4.3-13.9-4.3c-4.1,0-8.1,0.7-12.1,2c-3.9,1.4-7.3,3.2-10,5.4l-5.2-9.4
			c3.6-2.9,7.9-5.1,12.8-6.6c5-1.5,10.3-2.3,15.9-2.3C617.6,57.3,625,59.6,630.1,64.4z M617.6,115.3c3.5-2.1,6-5.2,7.6-9.1v-9.7
			h-19.4c-10.7,0-16,3.6-16,10.8c0,3.5,1.4,6.3,4.1,8.3c2.7,2,6.5,3,11.3,3C609.9,118.5,614.1,117.4,617.6,115.3z"/>
	</g>
	<g id="XMLID_121_">
		<path id="XMLID_10_" class="st2" d="M665.6,123.6c-5.6-3.1-9.9-7.3-13-12.7c-3.1-5.4-4.7-11.5-4.7-18.3c0-6.8,1.6-12.9,4.7-18.3
			c3.1-5.4,7.5-9.6,13-12.6c5.5-3,11.9-4.5,18.9-4.5c6.3,0,11.9,1.3,16.8,3.8c4.9,2.5,8.8,6.2,11.5,11l-9.6,6.2
			c-2.2-3.3-4.9-5.8-8.1-7.5c-3.2-1.7-6.8-2.5-10.8-2.5c-4.5,0-8.6,1-12.3,3c-3.6,2-6.5,4.9-8.5,8.6c-2.1,3.7-3.1,8-3.1,12.8
			c0,4.9,1,9.2,3.1,12.9c2.1,3.7,4.9,6.6,8.5,8.6c3.6,2,7.7,3,12.3,3c3.9,0,7.5-0.8,10.8-2.5c3.2-1.7,5.9-4.1,8.1-7.5l9.6,6
			c-2.7,4.8-6.5,8.5-11.5,11.1c-4.9,2.6-10.6,3.9-16.8,3.9C677.4,128.2,671.1,126.7,665.6,123.6z"/>
	</g>
	<g id="XMLID_123_">
		<path id="XMLID_11_" class="st2" d="M750.8,95l-14.4,13.4v19h-12.6V30.1h12.6v62.4l37.9-34.6h15.2l-29.2,28.7l32.1,40.8h-15.5
			L750.8,95z"/>
	</g>
	<g id="XMLID_128_">
		<path id="XMLID_17_" class="st3" d="M627,43.4"/>
	</g>
	<g id="XMLID_125_">
		<path id="XMLID_16_" class="st3" d="M532.3,43.4"/>
	</g>
	<g id="XMLID_103_">
		<circle id="XMLID_15_" class="st1" cx="486.1" cy="154.8" r="9.7"/>
	</g>
	<g id="XMLID_127_">
		<circle id="XMLID_14_" class="st1" cx="517.2" cy="154.8" r="5.3"/>
	</g>
	<g id="XMLID_77_">
		<circle id="XMLID_13_" class="st1" cx="546.3" cy="154.8" r="5.3"/>
	</g>
	<g id="XMLID_78_">
		<circle id="XMLID_12_" class="st1" cx="575.5" cy="154.8" r="5.3"/>
	</g>
	<g id="XMLID_79_">
		<circle id="XMLID_18_" class="st1" cx="604.7" cy="154.8" r="5.3"/>
	</g>
	<g id="XMLID_80_">
		<circle id="XMLID_19_" class="st1" cx="633.9" cy="154.8" r="5.3"/>
	</g>
	<g id="XMLID_81_">
		<circle id="XMLID_20_" class="st1" cx="663" cy="154.8" r="5.3"/>
	</g>
	<g id="XMLID_82_">
		<circle id="XMLID_21_" class="st1" cx="692.2" cy="154.8" r="5.3"/>
	</g>
	<g id="XMLID_83_">
		<circle id="XMLID_22_" class="st1" cx="721.4" cy="154.8" r="5.3"/>
	</g>
	<g id="XMLID_84_">
		<circle id="XMLID_23_" class="st1" cx="750.5" cy="154.8" r="5.3"/>
	</g>
	<g id="XMLID_126_">
		<circle id="XMLID_24_" class="st1" cx="783.6" cy="154.8" r="9.7"/>
	</g>
</g>
</svg>
